<svg xmlns="http://www.w3.org/2000/svg" width="62.641" height="25.413" viewBox="211.32 454.7 62.641 25.413"><g data-name="Group 1"><g data-name="Group 38"><path d="m257.575 464.768-.78-1.264 3.994-2.462 1.258-1.308.072-2.17 3.755-.788 1.276-2.076 1.963.08-.051.917 2.49.734-.42 1.424-2.173-.64-1.058-1.048-.908 1.664-3.458.604 1.13 1.963-1.888 1.164-1.707 1.052-3.495 2.154Z" fill="#fff" fill-rule="evenodd" data-name="Path 43"/></g><g data-name="Group 37"><path d="M228.479 458h1.372v6.086h-1.372v-6.087z" fill="#fff" fill-rule="evenodd" data-name="Rectangle 109"/><g data-name="Group 36"><path d="M247.645 457.4a4.082 4.082 0 0 0-2.169-.624h-18.791c-.723 0-1.4.352-1.817.944l-1.557 2.217-2.867 4.206 1.243.847 4.571-6.71h10.635l1.064 7.018 1.486-.226-1.03-6.793h7.805l10.18 6.382.8-1.273-9.553-5.988Z" fill="#fff" fill-rule="evenodd" data-name="Path 42"/><path d="m213.895 464.427.049.034.081-.115-.13.08Z" fill="#fff" fill-rule="evenodd" data-name="Path 41"/></g><g data-name="Group 35"><path d="M262.047 472.622a2.62 2.62 0 0 1 2.617 2.618 2.62 2.62 0 0 1-2.617 2.617 2.62 2.62 0 0 1-2.618-2.617 2.62 2.62 0 0 1 2.618-2.618m0-2.255a4.873 4.873 0 1 0 0 9.745 4.873 4.873 0 0 0 0-9.745Z" fill="#fff" fill-rule="evenodd" data-name="Path 40"/><path d="M223.606 472.622a2.62 2.62 0 0 1 2.618 2.618 2.62 2.62 0 0 1-2.618 2.617 2.62 2.62 0 0 1-2.618-2.617 2.62 2.62 0 0 1 2.618-2.618m0-2.255a4.873 4.873 0 1 0 0 9.745 4.873 4.873 0 0 0 0-9.745Z" fill="#fff" fill-rule="evenodd" data-name="Path 39"/><path d="M272.217 472.291v-1.163l-1.275-1.611c0-.507 1.064-1.043.717-1.377a1.808 1.808 0 0 0-.811-.447l-1.985-.146-1.944-.489-.505-1.242-9.848-2.477h-42.095a2.534 2.534 0 0 0-2.408 1.745l-.56 1.71a3.654 3.654 0 0 0-.183 1.142v3.455c0 .934.348 1.834.974 2.526l2.739 3.024h2.15c-.356-1.341-.347-2.83.39-4.416.982-2.11 2.983-3.649 5.297-3.898a6.654 6.654 0 0 1 7.388 6.613c0 .589-.085 1.157-.228 1.7h25.593c-.354-1.34-.346-2.829.391-4.415.981-2.11 2.984-3.649 5.297-3.898a6.654 6.654 0 0 1 7.387 6.613 6.66 6.66 0 0 1-.228 1.7l1.269 1.558h1.812c.537 0-.413-1.389 0-1.69.414-.3 1.63-.183 1.793-.694l-.72-1.238 1.322-.628c.17-.529-1.188-1.832-1.729-1.957Z" fill="#fff" fill-rule="evenodd" data-name="Path 38"/></g></g></g></svg>