<svg xmlns="http://www.w3.org/2000/svg" width="48.308" height="41.061" viewBox="1003.191 307.138 48.308 41.061"><path d="M1045.545 313.177h-9.746v-1.283a4.77 4.77 0 0 0-4.755-4.756h-7.397a4.77 4.77 0 0 0-4.756 4.756v1.283h-9.746a5.954 5.954 0 0 0-5.954 5.953v5.827a5.95 5.95 0 0 0 2.416 4.788v12.416a6.056 6.056 0 0 0 6.038 6.039h31.4a6.056 6.056 0 0 0 6.039-6.039v-12.416a5.95 5.95 0 0 0 2.415-4.788v-5.827a5.954 5.954 0 0 0-5.954-5.953Zm-24.238-1.283a2.343 2.343 0 0 1 2.34-2.34h7.397a2.343 2.343 0 0 1 2.34 2.34v1.283h-12.077v-1.283Zm25.361 30.267a3.627 3.627 0 0 1-3.623 3.623h-31.4a3.627 3.627 0 0 1-3.623-3.623v-11.358c.08.015.16.03.24.042l15.46 2.319v.543a3.623 3.623 0 1 0 7.246 0v-.543l15.46-2.32c.08-.011.161-.026.24-.04v11.357Zm-20.53-8.454v-2.415a1.208 1.208 0 0 1 2.415 0v2.415a1.208 1.208 0 0 1-2.415 0Zm22.946-8.75a3.516 3.516 0 0 1-3.014 3.5l-15.146 2.27a3.623 3.623 0 0 0-7.158 0l-15.146-2.271a3.516 3.516 0 0 1-3.013-3.499v-5.827a3.542 3.542 0 0 1 3.538-3.538h36.4a3.542 3.542 0 0 1 3.539 3.538v5.827Z" fill-rule="evenodd" data-name="Path 4"/></svg>