<svg xmlns="http://www.w3.org/2000/svg" width="37.195" height="44.322" viewBox="230.99 1023.977 37.195 44.322"><g data-name="Group 4"><path d="M246.015 1057.743a2.563 2.563 0 0 0-2.56 2.56 2.563 2.563 0 0 0 2.56 2.561h1.937l3.337-5.12h-5.274Z" fill="#fff" fill-rule="evenodd" data-name="Path 239"/><path d="M265.62 1052.547c-.995-.708-2.151-1.086-3.367-1.387.678 1.32 2.098 4.387 2.43 7.429.178.54.278 1.115.278 1.715 0 1.814-.888 3.42-2.25 4.42l-.01.01h-.003a5.448 5.448 0 0 1-3.222 1.056h-13.461a5.492 5.492 0 0 1-5.486-5.486 5.492 5.492 0 0 1 5.486-5.486h7.18l3.49-5.358c-.052-.028-.105-.053-.158-.083l-1.488-1.112a7.904 7.904 0 0 1-.86-.966s-1.166-1.311 1.457-4.518c2.624-3.208 2.842-8.308 2.187-12.244-.656-3.935-4.373-6.56-8.235-6.56-3.863 0-7.58 2.625-8.236 6.56-.655 3.936-.436 9.036 2.187 12.244 2.624 3.207 1.458 4.518 1.458 4.518-.166.22-.337.42-.512.61l-1.489 1.255c-3.008 1.943-6.795 1.5-9.442 3.383-3.279 2.331-2.478 14.43-2.478 14.43l18.512 1.322 18.511-1.323s.801-12.098-2.479-14.43Z" fill="#fff" fill-rule="evenodd" data-name="Path 238"/></g></svg>