<svg xmlns="http://www.w3.org/2000/svg" width="51.591" height="45.031" viewBox="216.5 642.679 51.591 45.031"><g data-name="Group 3"><path d="M258.118 672.59h-8.049v-8.05h-7.071v8.05h-8.049v7.07h8.049v8.05h7.071v-8.05h8.05v-7.07Z" fill="#fefefe" fill-rule="evenodd" data-name="Path 71"/><path d="M222.468 655.006c3.438 6.038 8.007 6.291 8.007 6.291l15.05-.085s1.72-.629 1.72-2.516c0-1.886-1.803-2.474-1.803-2.474l-9.35-.04c-.63-.379 0-.798 0-.798s18.96-.05 20.2.411c1.803.675 7.194 6.73 7.194 6.73l.032-.03a2.635 2.635 0 0 0 1.923.845 2.651 2.651 0 0 0 2.65-2.65c0-.776-.346-1.458-.878-1.941l-8.217-8.352c-2.164-2.338-5.206-2.113-5.206-2.113h-13.653c-8.042 0-8.772-5.605-8.772-5.605H216.5l5.968 12.327Z" fill="#fefefe" fill-rule="evenodd" data-name="Path 70"/></g></svg>