<svg xmlns="http://www.w3.org/2000/svg" width="46.421" height="38.136" viewBox="222.565 837.029 46.421 38.136"><g data-name="Group 5"><path d="M255.898 861.108c-.52 0-.986-.322-1.17-.808l-.92-2.428-2.139 6.304a1.252 1.252 0 0 1-2.393-.078l-3.208-11.959-4.454 15.278a1.25 1.25 0 0 1-2.351.144l-3.166-7.355h-9.467c3.256 3.681 8.136 7.335 9.822 8.641 2.168 1.68 8.902 6.318 8.902 6.318 2.081-1.864 6.668-4.42 12.628-8.666 2.75-1.958 4.88-3.634 6.533-5.391h-8.617Z" fill="#fff" fill-rule="evenodd" data-name="Path 463"/><path d="M224.723 857.722c.058-.009.115-.018.175-.018h12.022c.5 0 .952.297 1.15.756l2.116 4.915 4.731-16.229c.157-.539.655-.89 1.214-.901a1.25 1.25 0 0 1 1.195.927l3.298 12.295 1.935-5.7c.17-.501.635-.841 1.163-.849l.022-.001c.519 0 .986.322 1.17.808l1.848 4.88h9.734c.879-1.357 1.55-2.839 2.048-4.581 1.523-5.316-.623-15.505-10.653-16.517-10.032-1.01-12.203 6.764-12.203 6.764-.581-4.397-5.599-6.558-5.599-6.558-9.206-2.685-13.866 3.182-15.912 6.463-2.046 3.281-2.307 8.418.164 12.918.114.206.248.417.382.628Z" fill="#fff" fill-rule="evenodd" data-name="Path 462"/></g></svg>