<svg xmlns="http://www.w3.org/2000/svg" width="37.195" height="48.549" viewBox="222.491 539.938 37.195 48.549"><g data-name="Group 2"><g data-name="Group 280"><g data-name="Path 383"><path d="M254.343 586.227v-4.83h-8.014v4.83H222.49v2.26h37.195v-2.26h-5.343Z" fill="#fff" fill-rule="evenodd"/><path d="M254.343 586.227v-4.83h-8.014v4.83H222.49v2.26h37.195v-2.26h-5.343Z" stroke-linejoin="round" stroke-linecap="round" stroke="rgba(0,0,0,0 )" fill="transparent"/></g><g data-name="Path 382"><path d="M253.033 548.57a4.316 4.316 0 1 0 0-8.632 4.316 4.316 0 0 0 0 8.631Z" fill="#fff" fill-rule="evenodd"/><path d="M253.033 548.57a4.316 4.316 0 1 0 0-8.632 4.316 4.316 0 0 0 0 8.631Z" stroke-linejoin="round" stroke-linecap="round" stroke="rgba(0,0,0,0 )" fill="transparent"/></g><g data-name="Path 381"><path d="M223.836 579.783a2.307 2.307 0 0 0 3.235-.47l10.698-14.336 4.705 5.833-2.81 11.423a2.312 2.312 0 0 0 4.491 1.104l3.083-12.536a2.311 2.311 0 0 0-.446-2.003l-4.199-5.204.345-1.462 5.138-6.064v4.522c0 .434.18.847.501 1.138l5.96 5.446a1.538 1.538 0 0 0 2.177-.098 1.54 1.54 0 0 0-.098-2.177l-5.458-4.988v-8.568c0-.168-.027-.329-.077-.48-.1-.77-.446-1.794-1.464-2.705-1.953-1.747-5.55-1.13-5.55-1.13s-.033.039-.098.111l-8.737 2.41a1.544 1.544 0 0 0-1.02.912l-3.418 8.53a1.54 1.54 0 1 0 2.86 1.146l3.135-7.82 3.697-1.02c-2.818 3.53-6.166 8.192-5.507 9.688l-11.614 15.562a2.312 2.312 0 0 0 .47 3.236Z" fill="#fff" fill-rule="evenodd"/><path d="M223.836 579.783a2.307 2.307 0 0 0 3.235-.47l10.698-14.336 4.705 5.833-2.81 11.423a2.312 2.312 0 0 0 4.491 1.104l3.083-12.536a2.311 2.311 0 0 0-.446-2.003l-4.199-5.204.345-1.462 5.138-6.064v4.522c0 .434.18.847.501 1.138l5.96 5.446a1.538 1.538 0 0 0 2.177-.098 1.54 1.54 0 0 0-.098-2.177l-5.458-4.988v-8.568c0-.168-.027-.329-.077-.48-.1-.77-.446-1.794-1.464-2.705-1.953-1.747-5.55-1.13-5.55-1.13s-.033.039-.098.111l-8.737 2.41a1.544 1.544 0 0 0-1.02.912l-3.418 8.53a1.54 1.54 0 1 0 2.86 1.146l3.135-7.82 3.697-1.02c-2.818 3.53-6.166 8.192-5.507 9.688l-11.614 15.562a2.312 2.312 0 0 0 .47 3.236Z" stroke-linejoin="round" stroke-linecap="round" stroke="rgba(0,0,0,0 )" fill="transparent"/></g></g></g></svg>